<?xml version="1.0" encoding="UTF-8"?>
<svg version="1.1" xmlns="http://www.w3.org/2000/svg" width="235" height="256">
  <!-- 
    The content is scaled to 5/8 (0.625) and translated to center it 
    within the 235x256 viewport.
    
    Translation X: (235 * (1 - 0.625)) / 2 = 44.0625
    Translation Y: (256 * (1 - 0.625)) / 2 = 48
  -->
  <g transform="translate(44.0625, 48) scale(0.625)">
    <path d="M0 0 C0.71865234 0.39227783 1.43730469 0.78455566 2.17773438 1.1887207 C9.55403697 5.25452753 16.81042163 9.53642398 24.0703125 13.80541992 C31.32890211 18.06972762 38.64310915 22.22041643 46 26.3125 C54.62389386 31.11842509 63.21029806 35.983328 71.75 40.9375 C72.75611328 41.51757812 73.76222656 42.09765625 74.79882812 42.6953125 C87.68990546 50.20846273 87.68990546 50.20846273 89.5 56.3125 C89.80090229 59.73317464 89.79373448 63.14322086 89.79052734 66.57543945 C89.79724457 67.60695129 89.80396179 68.63846313 89.81088257 69.70123291 C89.82987196 73.10946477 89.83378734 76.51749978 89.8359375 79.92578125 C89.84236501 82.2984373 89.84909334 84.67109256 89.85610962 87.04374695 C89.86808493 92.01770871 89.8717902 96.99160101 89.87060547 101.96557617 C89.87040233 108.33100394 89.89769892 114.69598501 89.93214989 121.06130695 C89.95441657 125.96245865 89.95844306 130.86350284 89.95738602 135.76469994 C89.95974253 138.11098965 89.96856881 140.4572823 89.98405075 142.80352211 C90.00370416 146.08978939 89.99787436 149.37509328 89.98583984 152.66137695 C89.99707886 153.62528854 90.00831787 154.58920013 90.01989746 155.58232117 C89.96393011 161.61396208 89.02662569 166.31661905 85.5 171.3125 C79.27803062 177.41953743 70.80301173 181.35111638 63.29882812 185.68847656 C59.55026396 187.8635855 55.81501507 190.06111607 52.07901001 192.25770569 C37.57724522 200.78312245 23.03429919 209.23389203 8.4440918 217.60717773 C6.36769705 218.80989913 4.29956455 220.02694011 2.23754883 221.25415039 C0.64269653 222.20149048 0.64269653 222.20149048 -0.984375 223.16796875 C-1.94182617 223.74184326 -2.89927734 224.31571777 -3.88574219 224.90698242 C-7.78198593 227.00174104 -10.04927164 227.53138828 -14.5 227.3125 C-21.15771126 224.95285664 -27.39127792 221.33280034 -33.5625 217.9375 C-34.9870752 217.15693237 -34.9870752 217.15693237 -36.44042969 216.3605957 C-45.46959012 211.38303842 -54.37063338 206.19435109 -63.2578125 200.96875 C-68.72743898 197.75480096 -74.22702212 194.59541085 -79.73291016 191.4440918 C-110.85167718 173.60914565 -110.85167718 173.60914565 -114.5 166.3125 C-115.93448501 154.66038805 -115.68038856 142.81939583 -115.703125 131.1015625 C-115.70595238 130.10939098 -115.70877975 129.11721947 -115.71169281 128.09498215 C-115.72656733 122.85970555 -115.73587476 117.62445575 -115.74023438 112.38916016 C-115.74574889 107.00270165 -115.76987278 101.61649208 -115.79820633 96.23011208 C-115.81685175 92.06244175 -115.822039 87.89483176 -115.82357025 83.72712326 C-115.82658529 81.74088533 -115.83457476 79.75464817 -115.84775543 77.76845169 C-115.86488071 74.9933894 -115.86292165 72.21894187 -115.85644531 69.44384766 C-115.8656601 68.63433655 -115.87487488 67.82482544 -115.8843689 66.99078369 C-115.84160045 61.11696671 -115.07705658 55.25393722 -111.04823685 50.65546608 C-105.90491679 45.83227847 -99.43560088 42.51090849 -93.375 39 C-92.18053651 38.3014164 -90.98645296 37.60218281 -89.79272461 36.90234375 C-87.29311257 35.43826841 -84.79123544 33.97817591 -82.28759766 32.52099609 C-78.60515054 30.37633644 -74.93241572 28.21547365 -71.26171875 26.05078125 C-64.02039408 21.78304049 -56.76508801 17.53965404 -49.5 13.3125 C-48.8601416 12.94006165 -48.2202832 12.56762329 -47.56103516 12.18389893 C-43.68266902 9.92789599 -39.79996555 7.67962786 -35.91159058 5.44091797 C-34.69303107 4.73847294 -33.47549459 4.03424979 -32.25906372 3.328125 C-30.57293075 2.3501285 -28.88225245 1.37998132 -27.19140625 0.41015625 C-26.23435791 -0.14148193 -25.27730957 -0.69312012 -24.29125977 -1.26147461 C-15.21381281 -5.89904722 -8.65393585 -4.87586371 0 0 Z " fill="#F8F8F9" transform="translate(130.5,16.6875)"/>
    <path d="M0 0 C40.59 0 81.18 0 123 0 C121.64075003 3.39812492 120.48023583 6.07266087 118.63671875 9.125 C117.93530762 10.29119873 117.93530762 10.29119873 117.21972656 11.48095703 C116.7140918 12.31224121 116.20845703 13.14352539 115.6875 14 C115.15479492 14.88155762 114.62208984 15.76311523 114.07324219 16.67138672 C109.26489264 24.60895733 104.38159366 32.49987254 99.484375 40.3828125 C95.63754368 46.57705007 91.81862944 52.78835063 88 59 C82.92294384 67.25387759 77.8437099 75.50638674 72.75 83.75 C72.22535156 84.60078125 71.70070313 85.4515625 71.16015625 86.328125 C68.51426939 90.60598931 65.82113243 94.83547118 63 99 C59.26391669 97.7546389 58.8657773 96.62897604 56.84765625 93.3203125 C56.24244141 92.33869141 55.63722656 91.35707031 55.01367188 90.34570312 C54.36978516 89.28287109 53.72589844 88.22003906 53.0625 87.125 C51.69965906 84.90858337 50.33637302 82.69244036 48.97265625 80.4765625 C48.29734863 79.37344727 47.62204102 78.27033203 46.92626953 77.13378906 C44.3225541 72.89788396 41.66608261 68.6968149 39 64.5 C32.61578178 54.41483258 26.29637513 44.28936078 19.97607422 34.1640625 C17.92452888 30.87915669 15.87076077 27.59564962 13.81640625 24.3125 C13.13553955 23.22412842 12.45467285 22.13575684 11.75317383 21.0144043 C10.44733507 18.92713126 9.14119725 16.84004528 7.8347168 14.75317383 C7.244729 13.80982178 6.65474121 12.86646973 6.046875 11.89453125 C5.52963867 11.06800049 5.01240234 10.24146973 4.47949219 9.38989258 C3.74714355 8.20689575 3.74714355 8.20689575 3 7 C2.4421582 6.11530029 1.88431641 5.23060059 1.30957031 4.3190918 C0 2 0 2 0 0 Z " fill="#7065A2" transform="translate(56,94)"/>
    <path d="M0 0 C3.02874459 1.35631828 5.1251941 2.87646766 7.46411133 5.22119141 C8.45082573 6.20329086 8.45082573 6.20329086 9.45747375 7.20523071 C10.50912971 8.26766495 10.50912971 8.26766495 11.58203125 9.3515625 C12.31443527 10.08442474 13.04683929 10.81728699 13.80143738 11.57235718 C15.35119847 13.12513829 16.89852945 14.68034803 18.44360352 16.23779297 C20.78812668 18.60043828 23.14041748 20.95511735 25.49414062 23.30859375 C27.00307417 24.82244833 28.51155215 26.33675717 30.01953125 27.8515625 C30.71456253 28.5477066 31.40959381 29.24385071 32.12568665 29.96109009 C36.06408883 33.93714805 39.81666459 38.01980519 43.47419739 42.25527954 C45.22431459 44.25649862 47.05645185 46.14173588 48.96484375 47.9921875 C49.61904297 48.63414063 50.27324219 49.27609375 50.94726562 49.9375 C52.29984298 51.25423871 53.65407091 52.5692836 55.00976562 53.8828125 C55.9775293 54.83414063 55.9775293 54.83414063 56.96484375 55.8046875 C57.84064087 56.65522705 57.84064087 56.65522705 58.73413086 57.52294922 C60 59 60 59 60 61 C50.24289341 61.13349949 40.48575187 61.2640029 30.72856045 61.39115143 C26.19296301 61.45034014 21.65738112 61.51038754 17.12182617 61.57275391 C-8.25361576 61.92084533 -33.62219481 62.06927675 -59 62 C-58.04864372 60.88815594 -57.09701112 59.7765483 -56.14526367 58.66503906 C-55.61535324 58.04598694 -55.08544281 57.42693481 -54.53947449 56.78912354 C-46.72969002 47.71286452 -38.3409756 39.24880832 -29.8137207 30.85058594 C-25.61464599 26.69711085 -21.61166815 22.47086527 -17.76416016 17.99121094 C-14.52576949 14.33603321 -11.03486905 10.93106914 -7.5625 7.5 C-6.46518555 6.40945312 -6.46518555 6.40945312 -5.34570312 5.296875 C-3.56610176 3.52890501 -1.78419082 1.76333622 0 0 Z " fill="#3F3374" transform="translate(117,27)"/>
    <path d="M0 0 C2.29136954 2.14181434 3.9402495 4.29992519 5.57421875 6.97265625 C6.06833252 7.77598389 6.56244629 8.57931152 7.0715332 9.40698242 C7.60480225 10.28330322 8.13807129 11.15962402 8.6875 12.0625 C9.5386438 13.44949097 9.5386438 13.44949097 10.40698242 14.86450195 C11.63461646 16.86536766 12.86054457 18.86728083 14.08496094 20.87011719 C16.65409727 25.06903709 19.23662386 29.25965344 21.81860352 33.45068359 C26.60338252 41.2181135 31.38077764 48.99007222 36.15234375 56.765625 C37.51808771 58.98967021 38.88397137 61.21362963 40.25 63.4375 C41.23770386 65.04661255 41.23770386 65.04661255 42.24536133 66.68823242 C45.35412663 71.74235055 48.48335573 76.78090452 51.671875 81.78515625 C52.23616211 82.67082275 52.80044922 83.55648926 53.38183594 84.46899414 C54.43283731 86.11288841 55.48794839 87.75416503 56.54785156 89.39233398 C57.23572754 90.46656616 57.23572754 90.46656616 57.9375 91.5625 C58.33839844 92.18253906 58.73929687 92.80257812 59.15234375 93.44140625 C60 95 60 95 60 97 C52.77268528 96.24157808 45.73374715 94.80138603 38.625 93.3125 C36.71581787 92.91538818 36.71581787 92.91538818 34.76806641 92.51025391 C25.2033787 90.50945237 15.67514002 88.3622336 6.16479492 86.1171875 C1.18646333 84.94572421 -3.78888219 83.82078584 -8.80859375 82.83984375 C-9.70046387 82.66404785 -10.59233398 82.48825195 -11.51123047 82.30712891 C-13.16555912 81.98639495 -14.8220966 81.67677559 -16.48095703 81.38037109 C-18.66015625 80.95703125 -18.66015625 80.95703125 -22 80 C-23.13269831 76.60190508 -22.86195873 75.76619273 -21.84765625 72.44140625 C-21.4309668 71.04825195 -21.4309668 71.04825195 -21.00585938 69.62695312 C-20.69455078 68.61568359 -20.38324219 67.60441406 -20.0625 66.5625 C-19.40659378 64.3765894 -18.75168574 62.1903791 -18.09765625 60.00390625 C-17.75234863 58.85680176 -17.40704102 57.70969727 -17.05126953 56.52783203 C-15.3146973 50.7002731 -13.66019818 44.84968066 -12 39 C-9.36648363 29.76729202 -6.72874508 20.53581544 -4.0625 11.3125 C-3.76794922 10.28447266 -3.47339844 9.25644531 -3.16992188 8.19726562 C-2.76290039 6.79444336 -2.76290039 6.79444336 -2.34765625 5.36328125 C-2.11054932 4.54126221 -1.87344238 3.71924316 -1.62915039 2.87231445 C-1 1 -1 1 0 0 Z " fill="#3F3374" transform="translate(52,99)"/>
    <path d="M0 0 C1.4941837 2.79965355 2.51352287 5.4700143 3.33984375 8.53125 C3.5929834 9.46646484 3.84612305 10.40167969 4.10693359 11.36523438 C4.38102051 12.39970703 4.65510742 13.43417969 4.9375 14.5 C5.22963379 15.59119141 5.52176758 16.68238281 5.82275391 17.80664062 C9.49499036 31.66090257 12.92072886 45.57940631 16.35522461 59.49414062 C16.58891251 60.43749268 16.8226004 61.38084473 17.06336975 62.3527832 C17.50708385 64.14443584 17.94884793 65.93657284 18.38841248 67.72924805 C19.3871854 71.97129171 19.3871854 71.97129171 21 76 C21.039992 77.99960012 21.04346799 80.00047242 21 82 C2.92609655 86.36266635 -15.30372656 89.79829479 -33.58105469 93.17675781 C-36.57382277 93.73121969 -39.56355536 94.29937616 -42.55175781 94.87792969 C-43.28057159 95.01798431 -44.00938538 95.15803894 -44.76028442 95.30233765 C-46.75619277 95.68656241 -48.75141207 96.07436158 -50.74658203 96.46240234 C-54 97 -54 97 -58 97 C-56.74188625 93.68682177 -55.32854688 90.66137966 -53.5234375 87.61328125 C-53.02618164 86.7713623 -52.52892578 85.92944336 -52.01660156 85.06201172 C-51.47487305 84.15467285 -50.93314453 83.24733398 -50.375 82.3125 C-49.80233398 81.34844238 -49.22966797 80.38438477 -48.63964844 79.39111328 C-43.58732204 70.91768663 -38.42487668 62.51316552 -33.23925781 54.12084961 C-28.1587696 45.89752236 -23.13167092 37.64340073 -18.125 29.375 C-12.16365424 19.53235906 -6.14769123 9.72755074 0 0 Z " fill="#3E3274" transform="translate(183,98)"/>
    <path d="M0 0 C10.39316296 1.53642556 20.57854441 3.84908542 30.8125 6.1875 C32.57699621 6.58820273 34.34156417 6.98858961 36.10620117 7.38867188 C39.67530955 8.19821069 43.24402779 9.00943921 46.8125 9.82177734 C51.67513782 10.92767249 56.54021174 12.02245897 61.40625 13.11328125 C62.84660481 13.43657584 64.2869533 13.75989859 65.72729492 14.08325195 C67.75439182 14.53831697 69.78155351 14.99307712 71.80899048 15.44662476 C73.65032853 15.85880305 75.49119298 16.27309536 77.33203125 16.6875 C78.36046143 16.91824219 79.3888916 17.14898437 80.44848633 17.38671875 C83 18 83 18 86 19 C86 27.91 86 36.82 86 46 C75.6712669 41.28864806 65.66236326 36.26854077 55.72680664 30.78076172 C48.64129521 26.8740764 41.49770385 23.09494855 34.3125 19.375 C33.27077637 18.83480225 32.22905273 18.29460449 31.15576172 17.73803711 C27.13794699 15.65602127 23.11888996 13.57647198 19.09619141 11.50390625 C16.43655346 10.13250865 13.78049236 8.75440294 11.125 7.375 C10.34036377 6.9732959 9.55572754 6.5715918 8.74731445 6.15771484 C8.02890381 5.78340332 7.31049316 5.4090918 6.5703125 5.0234375 C5.94914551 4.70294434 5.32797852 4.38245117 4.68798828 4.05224609 C2.84391629 2.90270165 1.47551891 1.5872408 0 0 Z " fill="#131414" transform="translate(29,183)"/>
    <path d="M0 0 C-3.13576288 2.51058603 -6.38414823 4.33223321 -9.9609375 6.15234375 C-10.53908203 6.44836487 -11.11722656 6.74438599 -11.71289062 7.04937744 C-12.95341325 7.68447972 -14.19471007 8.31807168 -15.43670654 8.95028687 C-18.73344551 10.62938453 -22.02343546 12.32155362 -25.3125 14.015625 C-25.97212738 14.35534836 -26.63175476 14.69507172 -27.31137085 15.04508972 C-33.04645086 18.00735234 -38.72107185 21.07315885 -44.375 24.1875 C-52.11255223 28.43892615 -59.87761952 32.63269546 -67.6875 36.75 C-68.67476074 37.2761792 -69.66202148 37.8023584 -70.67919922 38.34448242 C-71.59330566 38.82377197 -72.50741211 39.30306152 -73.44921875 39.796875 C-74.25705811 40.22323242 -75.06489746 40.64958984 -75.8972168 41.08886719 C-78 42 -78 42 -81 42 C-81.0582462 38.27089934 -81.09367917 34.54191636 -81.125 30.8125 C-81.14175781 29.75740234 -81.15851563 28.70230469 -81.17578125 27.61523438 C-81.18222656 26.59365234 -81.18867187 25.57207031 -81.1953125 24.51953125 C-81.20578613 23.58214111 -81.21625977 22.64475098 -81.22705078 21.67895508 C-80.80246647 16.66931674 -80.80246647 16.66931674 -79 14 C-76.13465615 12.81791583 -73.18068859 12.40706909 -70.12890625 11.9375 C-69.22707611 11.78036026 -68.32524597 11.62322052 -67.39608765 11.46131897 C-64.4546751 10.95345427 -61.50908648 10.47683547 -58.5625 10 C-56.55177128 9.65782154 -54.54143419 9.3133338 -52.53149414 8.96655273 C-48.53985761 8.28006903 -44.54669424 7.60401632 -40.55175781 6.93701172 C-33.33155316 5.7264431 -26.13403122 4.40610958 -18.9375 3.0625 C-17.84703369 2.86333984 -16.75656738 2.66417969 -15.63305664 2.45898438 C-14.64942139 2.27787109 -13.66578613 2.09675781 -12.65234375 1.91015625 C-11.81695068 1.75683838 -10.98155762 1.60352051 -10.12084961 1.44555664 C-2.87068966 -0.07758621 -2.87068966 -0.07758621 0 0 Z " fill="#151616" transform="translate(201,187)"/>
    <path d="M0 0 C4.07429545 1.53102852 7.88395391 3.44186423 11.71484375 5.4921875 C12.68036415 6.00520164 12.68036415 6.00520164 13.66539001 6.52857971 C15.75755549 7.64133223 17.84761039 8.75797977 19.9375 9.875 C21.38879308 10.64859684 22.84012803 11.42211514 24.29150391 12.19555664 C41.95903586 21.61999102 59.51434536 31.24257297 77 41 C73.36985379 44.7520541 69.59338624 48.13638119 65.5 51.375 C64.94441406 51.83777344 64.38882813 52.30054688 63.81640625 52.77734375 C59.7035037 56.0192787 59.7035037 56.0192787 56.64802551 55.93554688 C53.14453303 54.69776369 51.01354171 52.55028229 48.4753418 49.9453125 C47.94791885 49.42007996 47.42049591 48.89484741 46.87709045 48.35369873 C45.14134764 46.62026211 43.42029423 44.87299036 41.69921875 43.125 C40.49647419 41.91733165 39.2929153 40.71047381 38.08857727 39.50439453 C35.57012279 36.97830595 33.05826765 34.44590237 30.55151367 31.90820312 C27.3306571 28.647666 24.09902529 25.39808866 20.86311626 22.15249634 C17.78409507 19.0635277 14.71007506 15.96960342 11.63671875 12.875 C11.04636023 12.28124573 10.4560017 11.68749146 9.84775352 11.07574463 C8.18829593 9.40477123 6.53239498 7.73036133 4.87768555 6.0546875 C4.38060089 5.55491394 3.88351624 5.05514038 3.37136841 4.54022217 C0 1.11490366 0 1.11490366 0 0 Z " fill="#151616" transform="translate(128,30)"/>
    <path d="M0 0 C3.52444842 1.1049386 6.71697132 2.22971923 9.8671875 4.1640625 C10.52460937 4.56367187 11.18203125 4.96328125 11.859375 5.375 C12.52453125 5.7875 13.1896875 6.2 13.875 6.625 C14.56335938 7.04523438 15.25171875 7.46546875 15.9609375 7.8984375 C17.64391658 8.92692472 19.32242532 9.962721 21 11 C19.36875004 18.91585507 17.15292985 26.62444923 14.875 34.375 C14.47483011 35.74392346 14.07484928 37.11290219 13.67504883 38.48193359 C12.45473592 42.65600935 11.22807912 46.8282036 10 51 C9.71458344 51.97030151 9.71458344 51.97030151 9.42340088 52.96020508 C5.68654277 65.66251724 1.9141736 78.35105251 -2 91 C-2.33 91 -2.66 91 -3 91 C-3.13524049 75.6210063 -2.83121295 60.29300277 -2.20043945 44.92700195 C-2.06160646 41.54070545 -1.92969171 38.15419112 -1.79882812 34.76757812 C-1.34263299 23.16741398 -0.80760546 11.5814753 0 0 Z " fill="#121313" transform="translate(28,81)"/>
    <path d="M0 0 C0.99 0.495 0.99 0.495 2 1 C-3.46532279 6.48861972 -8.93343817 11.97444092 -14.40501404 17.45682621 C-16.94632359 20.00332694 -19.48670605 22.55073765 -22.02490234 25.1003418 C-24.48007864 27.56648205 -26.93777792 30.03008301 -29.39715576 32.492033 C-30.77901905 33.87660956 -32.15834075 35.26372123 -33.53759766 36.65089417 C-38.0058039 41.11949271 -42.5194995 45.44885894 -47.34570312 49.53050232 C-48.92687652 50.93504504 -50.28859985 52.41749757 -51.6875 54 C-54 56 -54 56 -56.15625 55.9296875 C-60.15463597 54.62252285 -63.34333204 52.46876323 -66.8125 50.125 C-67.85180664 49.45404297 -67.85180664 49.45404297 -68.91210938 48.76953125 C-70.66726416 47.59712244 -72.34168359 46.3057938 -74 45 C-74 44.01 -74 43.02 -74 42 C-73.29206299 41.60844727 -72.58412598 41.21689453 -71.85473633 40.81347656 C-59.1604078 33.78807158 -46.48002171 26.74527025 -33.90063477 19.51538086 C-25.60963942 14.75688174 -17.2632518 10.09890124 -8.90771484 5.45483398 C-7.8914502 4.88837158 -6.87518555 4.32190918 -5.828125 3.73828125 C-4.9196582 3.23337158 -4.01119141 2.72846191 -3.07519531 2.20825195 C-1.07930564 1.16440093 -1.07930564 1.16440093 0 0 Z " fill="#151617" transform="translate(106,31)"/>
    <path d="M0 0 C0 31.68 0 63.36 0 96 C-1.57555738 92.84888524 -2.4658868 90.60047764 -3.26171875 87.265625 C-3.49004395 86.31502197 -3.71836914 85.36441895 -3.95361328 84.38500977 C-4.1957959 83.35045654 -4.43797852 82.31590332 -4.6875 81.25 C-5.07397705 79.61985962 -5.07397705 79.61985962 -5.46826172 77.95678711 C-6.96144817 71.60248889 -8.40184668 65.23717035 -9.80859375 58.86328125 C-10.03542091 57.83789497 -10.03542091 57.83789497 -10.26683044 56.79179382 C-11.027772 53.33589011 -11.77023634 49.87743678 -12.48120117 46.41088867 C-13.66948854 40.67034606 -14.85546775 35.05992239 -16.9296875 29.5625 C-20.01323629 21.03283367 -20.01323629 21.03283367 -19 17 C-15.67606197 11.64501061 -6.84655145 0 0 0 Z " fill="#111212" transform="translate(208,77)"/>
  </g>
</svg>